<svg id="Group_16039" data-name="Group 16039" xmlns="http://www.w3.org/2000/svg" width="145.246" height="112.235" viewBox="0 0 145.246 112.235">
  <g id="Group_16038" data-name="Group 16038">
    <path id="Path_28664" data-name="Path 28664" d="M133.042,7.8a77.935,77.935,0,0,0-23.107-3.3C97.06,4.5,83.2,7.141,73.623,14.4,64.05,7.141,50.185,4.5,37.311,4.5S10.573,7.141,1,14.4v96.72a3.55,3.55,0,0,0,3.3,3.3c.66,0,.99-.33,1.651-.33a80.581,80.581,0,0,1,31.36-7.262c12.874,0,26.738,2.641,36.311,9.9,8.913-5.612,25.088-9.9,36.311-9.9,10.893,0,22.117,1.981,31.36,6.932a2.976,2.976,0,0,0,1.651.33,3.55,3.55,0,0,0,3.3-3.3V14.4A45.03,45.03,0,0,0,133.042,7.8Zm0,89.128a76.719,76.719,0,0,0-23.107-3.3c-11.224,0-27.4,4.291-36.311,9.9V27.607c8.913-5.612,25.088-9.9,36.311-9.9a76.719,76.719,0,0,1,23.107,3.3Z" transform="translate(-1 -4.5)" fill="#fff"/>
    <g id="Group_16037" data-name="Group 16037" transform="translate(79.225 29.709)">
      <path id="Path_28665" data-name="Path 28665" d="M42.709,18.9A77.205,77.205,0,0,1,59.215,20.62V10.584A89.149,89.149,0,0,0,42.709,9C31.486,9,21.319,10.915,13,14.48V25.439C20.46,21.214,30.826,18.9,42.709,18.9Z" transform="translate(-13 -9)" fill="#fff"/>
      <path id="Path_28666" data-name="Path 28666" d="M13,17.14V28.1c7.46-4.225,17.826-6.536,29.709-6.536A77.206,77.206,0,0,1,59.215,23.28V13.244A89.149,89.149,0,0,0,42.709,11.66,77.185,77.185,0,0,0,13,17.14Z" transform="translate(-13 5.902)" fill="#fff"/>
      <path id="Path_28667" data-name="Path 28667" d="M42.709,14.33c-11.224,0-21.391,1.915-29.709,5.48V30.769c7.46-4.225,17.826-6.536,29.709-6.536A77.205,77.205,0,0,1,59.215,25.95V15.914A83.826,83.826,0,0,0,42.709,14.33Z" transform="translate(-13 20.859)" fill="#fff"/>
    </g>
  </g>
</svg>
