<svg xmlns="http://www.w3.org/2000/svg" width="12.472" height="24.357" viewBox="0 0 12.472 24.357">
  <path id="Path_28652" data-name="Path 28652" d="M-847.792,4720.027a4.592,4.592,0,0,1-4.665-4.5v-13.832a6.139,6.139,0,0,1,6.236-6.021,6.139,6.139,0,0,1,6.236,6.021V4716h-1.689v-14.308a4.476,4.476,0,0,0-4.547-4.391,4.476,4.476,0,0,0-4.547,4.391v13.832a2.929,2.929,0,0,0,2.976,2.873,2.929,2.929,0,0,0,2.976-2.873V4704.4a1.291,1.291,0,0,0-1.312-1.267,1.291,1.291,0,0,0-1.312,1.267v11.481h-1.689V4704.4a2.954,2.954,0,0,1,3-2.9,2.954,2.954,0,0,1,3,2.9v11.125A4.592,4.592,0,0,1-847.792,4720.027Z" transform="translate(852.457 -4695.67)" fill="#88949f" style="isolation: isolate"/>
</svg>
