<svg id="format_color_fill_black_24dp" xmlns="http://www.w3.org/2000/svg" width="48.059" height="46.32" viewBox="0 0 48.059 46.32">
  <g id="Group_16351" data-name="Group 16351" transform="translate(0 0)">
    <rect id="Rectangle_6348" data-name="Rectangle 6348" width="48.059" height="46.32" fill="none"/>
  </g>
  <g id="Group_16352" data-name="Group 16352" transform="translate(6.431 7.49)">
    <path id="Path_29350" data-name="Path 29350" d="M31.323,17.357,13.318,0l-2.84,2.737,4.793,4.621L4.9,17.357a2.822,2.822,0,0,0,0,4.116L15.977,32.15a3.095,3.095,0,0,0,4.27,0L31.323,21.472A2.822,2.822,0,0,0,31.323,17.357ZM8.465,19.415l9.647-9.3,9.647,9.3Zm27.772,2.912s-4.028,4.213-4.028,6.8a4.031,4.031,0,0,0,8.056,0C40.265,26.54,36.237,22.327,36.237,22.327ZM2,38.829Z" transform="translate(-2)" fill="#03428e"/>
  </g>
</svg>
