<svg xmlns="http://www.w3.org/2000/svg" width="27.584" height="27.582" viewBox="0 0 27.584 27.582">
  <path id="Icon_awesome-facebook-messenger" data-name="Icon awesome-facebook-messenger" d="M14.385.563C6.6.563.563,6.254.563,13.941a13.075,13.075,0,0,0,4.342,9.9c.464.418.369.66.448,3.238a1.108,1.108,0,0,0,1.55.977c2.942-1.3,2.98-1.4,3.479-1.262,8.525,2.346,17.765-3.109,17.765-12.849C28.146,6.254,22.173.563,14.385.563Zm8.3,10.3-4.06,6.427a2.078,2.078,0,0,1-3,.552L12.4,15.42a.834.834,0,0,0-1,0L7.037,18.725a.656.656,0,0,1-.952-.871l4.06-6.427a2.078,2.078,0,0,1,3-.552l3.229,2.417a.834.834,0,0,0,1,0l4.361-3.3a.654.654,0,0,1,.95.869Z" transform="translate(-0.563 -0.563)" fill="#1e4f92"/>
</svg>
