<svg xmlns="http://www.w3.org/2000/svg" width="20.934" height="14.654" viewBox="0 0 20.934 14.654">
  <path id="Icon_awesome-money-check" data-name="Icon awesome-money-check" d="M0,15.857A1.047,1.047,0,0,0,1.047,16.9h18.84a1.047,1.047,0,0,0,1.047-1.047V5.39H0Zm14.654-6.8a.523.523,0,0,1,.523-.523h3.14a.523.523,0,0,1,.523.523V10.1a.523.523,0,0,1-.523.523h-3.14a.523.523,0,0,1-.523-.523Zm0,3.925a.262.262,0,0,1,.262-.262h3.663a.262.262,0,0,1,.262.262V13.5a.262.262,0,0,1-.262.262H14.915a.262.262,0,0,1-.262-.262ZM2.093,9.838a.262.262,0,0,1,.262-.262H12.3a.262.262,0,0,1,.262.262v.523a.262.262,0,0,1-.262.262H2.355a.262.262,0,0,1-.262-.262Zm0,3.14a.262.262,0,0,1,.262-.262H8.112a.262.262,0,0,1,.262.262V13.5a.262.262,0,0,1-.262.262H2.355a.262.262,0,0,1-.262-.262ZM20.41,2.25H.523A.523.523,0,0,0,0,2.773v1.57H20.934V2.773A.523.523,0,0,0,20.41,2.25Z" transform="translate(0 -2.25)" fill="#637381"/>
</svg>
