<svg xmlns="http://www.w3.org/2000/svg" width="20.934" height="18.84" viewBox="0 0 20.934 18.84">
  <path id="Icon_material-business-center" data-name="Icon material-business-center" d="M11.373,18.107V17.06H4.057l-.01,4.187A2.086,2.086,0,0,0,6.14,23.34H20.794a2.086,2.086,0,0,0,2.093-2.093V17.06H15.56v1.047ZM21.84,8.687h-4.2V6.593L15.55,4.5H11.363L9.27,6.593V8.687H5.093A2.1,2.1,0,0,0,3,10.78v3.14a2.086,2.086,0,0,0,2.093,2.093h6.28V13.92H15.56v2.093h6.28a2.1,2.1,0,0,0,2.093-2.093V10.78A2.1,2.1,0,0,0,21.84,8.687Zm-6.28,0H11.373V6.593H15.56Z" transform="translate(-3 -4.5)" fill="#637381"/>
</svg>
