<svg xmlns="http://www.w3.org/2000/svg" width="44" height="44" viewBox="0 0 44 44">
  <g id="Group_15122" data-name="Group 15122" transform="translate(-301 -61.001)">
    <path id="Oval_5_Copy_2" data-name="Oval 5 Copy 2" d="M22,0A22,22,0,1,1,0,22,22,22,0,0,1,22,0Z" transform="translate(301 61.001)" fill="#3d464f"/>
    <path id="Icon_awesome-linkedin" data-name="Icon awesome-linkedin" d="M20.262,2.25H1.554A1.565,1.565,0,0,0,0,3.823V22.5A1.565,1.565,0,0,0,1.554,24.07H20.262A1.569,1.569,0,0,0,21.82,22.5V3.823A1.569,1.569,0,0,0,20.262,2.25ZM6.595,20.953H3.361V10.54H6.6V20.953ZM4.978,9.118A1.875,1.875,0,1,1,6.853,7.242,1.876,1.876,0,0,1,4.978,9.118Zm13.74,11.836H15.484V15.888c0-1.208-.024-2.762-1.68-2.762-1.685,0-1.943,1.315-1.943,2.674v5.153H8.626V10.54h3.1v1.422h.044a3.406,3.406,0,0,1,3.064-1.68c3.273,0,3.882,2.158,3.882,4.963Z" transform="translate(312.09 69.841)" fill="#fff"/>
  </g>
</svg>
