<svg xmlns="http://www.w3.org/2000/svg" width="44" height="44" viewBox="0 0 44 44">
  <g id="Group_15121" data-name="Group 15121" transform="translate(-242 -61)">
    <circle id="Oval_5_Copy_2" data-name="Oval 5 Copy 2" cx="22" cy="22" r="22" transform="translate(242 61)" fill="#3d464f"/>
    <path id="Icon_awesome-line" data-name="Icon awesome-line" d="M14.425,11.379v3.769a.167.167,0,0,1-.17.17h-.6a.175.175,0,0,1-.138-.069l-1.728-2.333v2.237a.167.167,0,0,1-.17.17h-.6a.167.167,0,0,1-.17-.17V11.384a.167.167,0,0,1,.17-.17h.6a.16.16,0,0,1,.138.074l1.728,2.333V11.384a.167.167,0,0,1,.17-.17h.6a.168.168,0,0,1,.175.164Zm-4.347-.17h-.6a.167.167,0,0,0-.17.17v3.769a.167.167,0,0,0,.17.17h.6a.167.167,0,0,0,.17-.17V11.379A.171.171,0,0,0,10.078,11.209ZM8.62,14.369H6.971v-2.99a.167.167,0,0,0-.17-.17H6.2a.167.167,0,0,0-.17.17v3.769a.156.156,0,0,0,.048.117.179.179,0,0,0,.117.048H8.615a.167.167,0,0,0,.17-.17v-.6a.17.17,0,0,0-.164-.17Zm8.986-3.16H15.183a.171.171,0,0,0-.17.17v3.769a.171.171,0,0,0,.17.17h2.423a.167.167,0,0,0,.17-.17v-.6a.167.167,0,0,0-.17-.17H15.957v-.636h1.649a.167.167,0,0,0,.17-.17v-.61a.167.167,0,0,0-.17-.17H15.957v-.636h1.649a.167.167,0,0,0,.17-.17v-.6a.178.178,0,0,0-.17-.17ZM23.75,6.581V21.706A4.318,4.318,0,0,1,19.419,26H4.294A4.321,4.321,0,0,1,0,21.669V6.544A4.321,4.321,0,0,1,4.331,2.25H19.456A4.318,4.318,0,0,1,23.75,6.581Zm-3.266,6.5c0-3.87-3.881-7.019-8.646-7.019S3.191,9.211,3.191,13.081c0,3.467,3.075,6.372,7.231,6.924,1.013.217.9.588.668,1.951-.037.217-.175.854.747.467a27.943,27.943,0,0,0,6.8-5.02A6.263,6.263,0,0,0,20.484,13.081Z" transform="translate(252.125 68.876)" fill="#fff"/>
  </g>
</svg>
