<svg xmlns="http://www.w3.org/2000/svg" width="45" height="45" viewBox="0 0 45 45">
  <g id="Line" transform="translate(0.5 0.5)">
    <circle id="Oval_5_Copy_2" data-name="Oval 5 Copy 2" cx="22" cy="22" r="22" fill="none" stroke="#fff" stroke-miterlimit="10" stroke-width="1"/>
    <path id="Icon_awesome-line" data-name="Icon awesome-line" d="M9.718,8.4v2.539a.113.113,0,0,1-.114.114H9.2a.118.118,0,0,1-.093-.046L7.939,9.436v1.507a.113.113,0,0,1-.114.114H7.418a.113.113,0,0,1-.114-.114V8.4a.113.113,0,0,1,.114-.114h.4a.108.108,0,0,1,.093.05L9.079,9.911V8.4a.113.113,0,0,1,.114-.114H9.6a.113.113,0,0,1,.118.111ZM6.789,8.286H6.382a.113.113,0,0,0-.114.114v2.539a.113.113,0,0,0,.114.114h.407a.113.113,0,0,0,.114-.114V8.4A.115.115,0,0,0,6.789,8.286Zm-.982,2.129H4.7V8.4a.113.113,0,0,0-.114-.114H4.175a.113.113,0,0,0-.114.114v2.539a.105.105,0,0,0,.032.079.12.12,0,0,0,.079.032H5.8a.113.113,0,0,0,.114-.114v-.407a.114.114,0,0,0-.111-.114Zm6.054-2.129H10.229a.115.115,0,0,0-.114.114v2.539a.115.115,0,0,0,.114.114h1.632a.113.113,0,0,0,.114-.114v-.407a.113.113,0,0,0-.114-.114H10.75V9.989h1.111a.113.113,0,0,0,.114-.114V9.464a.113.113,0,0,0-.114-.114H10.75V8.921h1.111a.113.113,0,0,0,.114-.114V8.4a.12.12,0,0,0-.114-.114ZM16,5.168V15.357a2.909,2.909,0,0,1-2.918,2.893H2.893A2.911,2.911,0,0,1,0,15.332V5.143A2.911,2.911,0,0,1,2.918,2.25H13.107A2.909,2.909,0,0,1,16,5.168ZM13.8,9.546c0-2.607-2.614-4.729-5.825-4.729S2.15,6.939,2.15,9.546c0,2.336,2.071,4.293,4.871,4.664.682.146.6.4.45,1.314-.025.146-.118.575.5.314a18.825,18.825,0,0,0,4.579-3.382A4.219,4.219,0,0,0,13.8,9.546Z" transform="translate(14 11.751)" fill="#fff"/>
  </g>
</svg>
