<svg xmlns="http://www.w3.org/2000/svg" width="45" height="45" viewBox="0 0 45 45">
  <g id="Linkin" transform="translate(0.5 0.5)">
    <path id="Oval_5_Copy_2" data-name="Oval 5 Copy 2" d="M22,0A22,22,0,1,1,0,22,22,22,0,0,1,22,0Z" fill="none" stroke="#000" stroke-width="1"/>
    <path id="Icon_awesome-linkedin" data-name="Icon awesome-linkedin" d="M15.671,2.25H1.2A1.211,1.211,0,0,0,0,3.467V17.909a1.211,1.211,0,0,0,1.2,1.217H15.671a1.214,1.214,0,0,0,1.205-1.217V3.467A1.214,1.214,0,0,0,15.671,2.25ZM5.1,16.715H2.6V8.661H5.1v8.054ZM3.85,7.561A1.45,1.45,0,1,1,5.3,6.111a1.451,1.451,0,0,1-1.45,1.45Zm10.627,9.154h-2.5V12.8c0-.934-.019-2.136-1.3-2.136-1.3,0-1.5,1.017-1.5,2.068v3.985h-2.5V8.661h2.4v1.1H9.1a2.635,2.635,0,0,1,2.369-1.3c2.531,0,3,1.669,3,3.839Z" transform="translate(13.563 11.313)" fill="#000"/>
  </g>
</svg>
