<svg xmlns="http://www.w3.org/2000/svg" width="232.702" height="65.448" viewBox="0 0 232.702 65.448"><g transform="translate(-129.178 -147.852)"><g transform="translate(205.806 154.259)"><g transform="translate(0 0)"><path d="M319.192,187.153l3.9-21.687a1.044,1.044,0,0,1,1.037-.726h7.319a.8.8,0,0,1,.767.429l5.726,11.558a42.112,42.112,0,0,1,.644-4.3l1.253-6.967a1.04,1.04,0,0,1,1.044-.72h6.436c.415,0,.859.264.776.726l-3.9,21.682a1.044,1.044,0,0,1-1.047.726h-7.188a.8.8,0,0,1-.749-.4l-5.8-11.727c-.12,1.422-.431,2.87-.686,4.293l-1.277,7.1a1.044,1.044,0,0,1-1.045.729h-6.439c-.441,0-.853-.288-.775-.721" transform="translate(-319.182 -164.337)" fill="#03428e" fill-rule="evenodd"/><path d="M634.472,187.155l3.9-21.688a1.044,1.044,0,0,1,1.037-.725h7.319a.8.8,0,0,1,.767.428l5.726,11.558a42.113,42.113,0,0,1,.645-4.3l1.253-6.966a1.04,1.04,0,0,1,1.044-.72H662.6c.416,0,.859.263.776.726l-3.9,21.683a1.043,1.043,0,0,1-1.047.725H651.24a.8.8,0,0,1-.749-.4l-5.8-11.727c-.12,1.422-.43,2.869-.686,4.293l-1.277,7.1a1.043,1.043,0,0,1-1.045.729h-6.439c-.441,0-.853-.287-.775-.72" transform="translate(-507.312 -164.338)" fill="#03428e" fill-rule="evenodd"/><path d="M397.088,187.146l3.9-21.677a1.045,1.045,0,0,1,1.042-.728h7.563c.426,0,.855.273.773.726l-3.9,21.667a1.039,1.039,0,0,1-1.051.74h-7.562c-.405,0-.849-.266-.766-.728" transform="translate(-365.663 -164.337)" fill="#03428e" fill-rule="evenodd"/><path d="M435.818,187.145l3.9-21.68a1.044,1.044,0,0,1,1.036-.726q5.29,0,10.58,0c2.2,0,5.107.258,6.976,1.867,3.354,2.887,1.435,8.4-1.748,10.551a12.91,12.91,0,0,1-7.388,2.018h-2.884l-1.434,7.969a1.042,1.042,0,0,1-1.04.728h-7.233c-.4,0-.849-.263-.765-.728m11.246-12.269h1.207a3.8,3.8,0,0,0,2.438-.773c1.276-1.032,1.728-3.23.767-4.248a3.228,3.228,0,0,0-2.345-.718H448.1Z" transform="translate(-388.773 -164.336)" fill="#03428e" fill-rule="evenodd"/><path d="M498.858,187.146l3.9-21.68a1.043,1.043,0,0,1,1.035-.725q5.29,0,10.58,0c2.2,0,5.107.258,6.976,1.867,3.354,2.887,1.435,8.4-1.748,10.551a12.911,12.911,0,0,1-7.388,2.019h-2.884l-1.434,7.969a1.043,1.043,0,0,1-1.041.728h-7.233c-.4,0-.849-.262-.765-.728M510.1,174.876h1.207a3.8,3.8,0,0,0,2.438-.773c1.276-1.032,1.728-3.23.767-4.248a3.229,3.229,0,0,0-2.345-.718h-1.034Z" transform="translate(-426.39 -164.336)" fill="#03428e" fill-rule="evenodd"/><path d="M569.009,167.046c4.961-4.012,14.786-4.75,19.073-.105,4.791,5.19,1.665,13.841-3.217,17.6-5.47,4.211-15.269,4.217-18.926-.089-4.4-5.183-1.925-13.367,3.069-17.406m6.961,15.39a4.135,4.135,0,0,0,3.021-1.671c1.393-1.794,3.064-6.6,1.862-9.983a2.69,2.69,0,0,0-2.735-1.8,4.049,4.049,0,0,0-3.07,1.708c-1.552,2.066-3.013,6.8-1.808,10.041A2.7,2.7,0,0,0,575.971,182.436Z" transform="translate(-465.062 -163.74)" fill="#03428e" fill-rule="evenodd"/></g><g transform="translate(17.114 29.432)"><path d="M526.789,259.134l3.9-21.688a1.043,1.043,0,0,1,1.037-.726h7.319a.8.8,0,0,1,.767.429l5.726,11.558a42.263,42.263,0,0,1,.644-4.3l1.253-6.967a1.041,1.041,0,0,1,1.044-.72h6.436c.415,0,.859.264.776.726l-3.9,21.682a1.044,1.044,0,0,1-1.047.725h-7.188a.8.8,0,0,1-.749-.4l-5.8-11.727c-.119,1.422-.43,2.87-.686,4.293l-1.277,7.1a1.043,1.043,0,0,1-1.045.729h-6.438c-.441,0-.853-.287-.775-.72" transform="translate(-460.17 -236.72)" fill="#03428e" fill-rule="evenodd"/><path d="M488.074,259.127l3.9-21.678a1.044,1.044,0,0,1,1.042-.728h7.562c.426,0,.854.272.773.726l-3.9,21.667a1.038,1.038,0,0,1-1.052.74h-7.562c-.405,0-.849-.265-.765-.728" transform="translate(-437.069 -236.72)" fill="#03428e" fill-rule="evenodd"/><path d="M361.627,259.126l3.9-21.68a1.044,1.044,0,0,1,1.036-.725q5.29,0,10.58,0c2.2,0,5.108.258,6.977,1.867,3.353,2.887,1.435,8.4-1.748,10.551a12.911,12.911,0,0,1-7.388,2.018H372.1l-1.434,7.969a1.043,1.043,0,0,1-1.041.728h-7.233c-.4,0-.849-.262-.765-.728m11.246-12.269h1.207a3.8,3.8,0,0,0,2.438-.773c1.276-1.032,1.728-3.23.767-4.248a3.23,3.23,0,0,0-2.345-.718h-1.034Z" transform="translate(-361.617 -236.72)" fill="#03428e" fill-rule="evenodd"/><path d="M413.453,258.919l12.078-21.73a1.1,1.1,0,0,1,.943-.469h9.068c.3,0,.7.142.763.475l3.762,21.733c.1.494-.477.926-1.024.926h-7.25a.72.72,0,0,1-.777-.566l-.33-2.99H423.8l-1.435,2.983a1.116,1.116,0,0,1-.986.573h-7.253c-.542,0-.962-.409-.67-.935m12.775-7.728h3.951l-.381-4.78a26.319,26.319,0,0,1-.025-3.488,26.626,26.626,0,0,1-1.37,3.511Z" transform="translate(-392.491 -236.72)" fill="#03428e" fill-rule="evenodd"/><path d="M614.332,242.172h-5.216c-.411,0-.843-.276-.761-.725l.732-4a1.041,1.041,0,0,1,1.041-.729h19.789c.4,0,.849.257.761.739l-.729,3.979a1.039,1.039,0,0,1-1.029.734h-5.21l-3.037,16.957a1.042,1.042,0,0,1-1.036.725H612.06c-.411,0-.847-.271-.766-.725Z" transform="translate(-508.841 -236.72)" fill="#03428e" fill-rule="evenodd"/></g></g><g transform="translate(129.178 147.852)"><path d="M187.8,148.347h-58.13v56.444a8.627,8.627,0,0,0,8.605,8.6h58.129V156.952a8.626,8.626,0,0,0-8.605-8.6" transform="translate(-129.473 -148.147)" fill="#fff" fill-rule="evenodd"/><path d="M137.7,156.374h54.836a5.44,5.44,0,0,1,5.423,5.424v53.151H143.124a5.439,5.439,0,0,1-5.423-5.423Z" transform="translate(-134.264 -152.937)" fill="#03428e" fill-rule="evenodd"/><path d="M174.889,211.876V194.005c0-5.38,6.556-6.631,7.416-.668.7,4.849-3.82,13.273-6.953,18.641-.177.3-.463.261-.463-.1m0-38.433V171.3h0v-.968a1.155,1.155,0,0,0-1.145-1.194H156.952a1.149,1.149,0,0,0-1.145,1.145v42.746a1.152,1.152,0,0,0,1.145,1.145H198.2c.656,0,.909-.309.8-.955l-.3-1.71c-.807-4.643,4.252-13.445,3.876-22.6a18.874,18.874,0,0,0-27.69-15.47Z" transform="translate(-145.068 -160.555)" fill="#fff" fill-rule="evenodd"/><path d="M161.477,180.162h14.534v4.16a16.177,16.177,0,0,1,11.1-4.431,16.9,16.9,0,0,1,15.911,11.548c2.971,9.606-4.257,20.389-3.146,26.9H181.444c5.054-8.558,7.031-15.129,6.524-18.848-.811-5.968-6.117-7.472-9.76-4.381-1.95,1.654-2.2,3.672-2.2,6.072v17.157H161.477Z" transform="translate(-148.451 -166.969)" fill="#ed1c24" fill-rule="evenodd"/><path d="M129.178,147.852h58.329a8.828,8.828,0,0,1,8.805,8.8V213.3h-58.33a8.826,8.826,0,0,1-8.8-8.8Zm58.329.2h-58.13V204.5a8.627,8.627,0,0,0,8.605,8.6h58.129V156.656a8.626,8.626,0,0,0-8.605-8.6Z" transform="translate(-129.178 -147.852)" fill="#03428e" fill-rule="evenodd"/></g></g></svg>