<svg xmlns="http://www.w3.org/2000/svg" width="27.964" height="19.359" viewBox="0 0 27.964 19.359">
  <g id="Icon_ionic-ios-mail" data-name="Icon ionic-ios-mail" transform="translate(-3.375 -7.875)">
    <path id="Path_198" data-name="Path 198" d="M31.11,10.355l-7.233,7.367a.13.13,0,0,0,0,.188L28.939,23.3a.872.872,0,0,1,0,1.237.876.876,0,0,1-1.237,0L22.66,19.168a.138.138,0,0,0-.195,0l-1.23,1.25a5.412,5.412,0,0,1-3.858,1.627,5.521,5.521,0,0,1-3.939-1.674l-1.183-1.2a.138.138,0,0,0-.195,0L7.018,24.539a.876.876,0,0,1-1.237,0,.872.872,0,0,1,0-1.237l5.062-5.391a.143.143,0,0,0,0-.188L3.6,10.355a.132.132,0,0,0-.229.094V25.191a2.157,2.157,0,0,0,2.151,2.151H29.188a2.157,2.157,0,0,0,2.151-2.151V10.449A.134.134,0,0,0,31.11,10.355Z" transform="translate(0 -0.107)" fill="#1e4f92"/>
    <path id="Path_199" data-name="Path 199" d="M17.394,20.183a3.654,3.654,0,0,0,2.628-1.1L30.569,8.346a2.113,2.113,0,0,0-1.331-.471H5.557a2.1,2.1,0,0,0-1.331.471L14.773,19.081A3.655,3.655,0,0,0,17.394,20.183Z" transform="translate(-0.037 0)" fill="#1e4f92"/>
  </g>
</svg>
