<svg xmlns="http://www.w3.org/2000/svg" width="45" height="45" viewBox="0 0 45 45">
  <g id="Linkin" transform="translate(0.5 0.5)">
    <path id="Oval_5_Copy_2" data-name="Oval 5 Copy 2" d="M22,0A22,22,0,1,1,0,22,22,22,0,0,1,22,0Z" fill="none" stroke="#fff" stroke-width="1"/>
    <path id="Icon_awesome-pinterest" data-name="Icon awesome-pinterest" d="M19.617,10.371a9.81,9.81,0,0,1-12.712,9.37A11.026,11.026,0,0,0,8.124,17.17c.119-.459.609-2.333.609-2.333a2.627,2.627,0,0,0,2.246,1.127c2.958,0,5.09-2.721,5.09-6.1A5.757,5.757,0,0,0,10.022,4.2C5.79,4.2,3.54,7.037,3.54,10.134a4.4,4.4,0,0,0,1.989,3.8c.186.087.285.047.328-.131.032-.134.2-.8.273-1.111a.294.294,0,0,0-.067-.281,3.863,3.863,0,0,1-.724-2.239,4.245,4.245,0,0,1,4.43-4.256,3.872,3.872,0,0,1,4.1,3.991c0,2.654-1.341,4.493-3.085,4.493A1.423,1.423,0,0,1,9.33,12.629a19.709,19.709,0,0,0,.811-3.267A1.232,1.232,0,0,0,8.9,7.982c-.985,0-1.776,1.016-1.776,2.381a3.534,3.534,0,0,0,.293,1.455s-.969,4.105-1.147,4.873a9.494,9.494,0,0,0-.036,2.816,9.81,9.81,0,1,1,13.384-9.136Z" transform="translate(12.192 11.629)" fill="#fff"/>
  </g>
</svg>
