<svg id="Group_14809" data-name="Group 14809" xmlns="http://www.w3.org/2000/svg" width="44" height="44" viewBox="0 0 44 44">
  <circle id="Oval_5_Copy" data-name="Oval 5 Copy" cx="22" cy="22" r="22" fill="#3d464f"/>
  <path id="Path" d="M25.688.012A12.727,12.727,0,0,1,22.022,1.8a5.231,5.231,0,0,0-9.178,3.5V6.469A12.447,12.447,0,0,1,2.335,1.18S-2.335,11.688,8.174,16.359A13.591,13.591,0,0,1,0,18.694c10.509,5.838,23.353,0,23.353-13.428A5.254,5.254,0,0,0,23.26,4.3,9.014,9.014,0,0,0,25.688.012Z" transform="translate(9.242 12.847)" fill="#3d464f" stroke="#fff" stroke-linecap="round" stroke-linejoin="round" stroke-miterlimit="10" stroke-width="2"/>
</svg>
