<svg xmlns="http://www.w3.org/2000/svg" width="45" height="45" viewBox="0 0 45 45">
  <g id="Twitter" transform="translate(0.5 0.5)">
    <circle id="Oval_5_Copy" data-name="Oval 5 Copy" cx="22" cy="22" r="22" fill="none" stroke="#000" stroke-miterlimit="10" stroke-width="1"/>
    <path id="Path" d="M17.779.008a8.809,8.809,0,0,1-2.538,1.236A3.62,3.62,0,0,0,8.89,3.669v.808A8.615,8.615,0,0,1,1.616.816S-1.616,8.09,5.657,11.322A9.407,9.407,0,0,1,0,12.939c7.273,4.041,16.163,0,16.163-9.294a3.637,3.637,0,0,0-.065-.671A6.239,6.239,0,0,0,17.779.008Z" transform="translate(14.11 15.75)" fill="#000"/>
  </g>
</svg>
