<svg xmlns="http://www.w3.org/2000/svg" width="44" height="44" viewBox="0 0 44 44">
  <g id="Group_15120" data-name="Group 15120" transform="translate(-183 -61)">
    <circle id="Oval_5_Copy_2" data-name="Oval 5 Copy 2" cx="22" cy="22" r="22" transform="translate(183 61)" fill="#3d464f"/>
    <g id="Icon_feather-youtube" data-name="Icon feather-youtube" transform="translate(193.281 74.766)">
      <path id="Path_28573" data-name="Path 28573" d="M24.446,8.578a2.961,2.961,0,0,0-2.067-2.131C20.547,6,13.218,6,13.218,6s-7.329,0-9.161.49A2.961,2.961,0,0,0,1.99,8.621a30.894,30.894,0,0,0-.49,5.635,30.893,30.893,0,0,0,.49,5.678,2.961,2.961,0,0,0,2.067,2.045c1.832.49,9.161.49,9.161.49s7.329,0,9.161-.49a2.961,2.961,0,0,0,2.067-2.131,30.893,30.893,0,0,0,.49-5.593,30.893,30.893,0,0,0-.49-5.678Z" transform="translate(-1.499 -6)" fill="none" stroke="#fff" stroke-linecap="round" stroke-linejoin="round" stroke-width="2"/>
      <path id="Path_28574" data-name="Path 28574" d="M14.625,21.029l7.305-4.154L14.625,12.72Z" transform="translate(-5.621 -8.61)" fill="none" stroke="#fff" stroke-linecap="round" stroke-linejoin="round" stroke-width="2"/>
    </g>
  </g>
</svg>
